<svg xmlns="http://www.w3.org/2000/svg" width="256" height="256" viewBox="0 0 256 256">
  <defs>
    <filter id="shadow" x="-30%" y="-30%" width="160%" height="160%">
      <feDropShadow dx="0" dy="5" stdDeviation="4" flood-color="#000" flood-opacity=".45"/>
    </filter>
    <filter id="soft" x="-20%" y="-20%" width="140%" height="140%">
      <feGaussianBlur stdDeviation="1.2"/>
    </filter>
    <linearGradient id="panelGrad" x1="0" x2="1" y1="0" y2="1">
      <stop offset="0" stop-color="#3a2514"/>
      <stop offset="1" stop-color="#17100a"/>
    </linearGradient>
    <linearGradient id="goldGrad" x1="0" x2="1">
      <stop offset="0" stop-color="#ffe28a"/>
      <stop offset=".45" stop-color="#e0ad4e"/>
      <stop offset="1" stop-color="#8e5a20"/>
    </linearGradient>
    
  </defs>
  <rect width="256" height="256" fill="#7b4d29"/><ellipse cx="0" cy="0" rx="7.2" ry="4" fill="#bd8350" opacity=".28" transform="rotate(0 0 0)"/><ellipse cx="47" cy="83" rx="9" ry="5" fill="#4d2d17" opacity=".28" transform="rotate(31 47 83)"/><ellipse cx="94" cy="166" rx="10.8" ry="6" fill="#4d2d17" opacity=".28" transform="rotate(62 94 166)"/><ellipse cx="141" cy="249" rx="12.6" ry="7" fill="#bd8350" opacity=".28" transform="rotate(93 141 249)"/><ellipse cx="188" cy="76" rx="14.4" ry="8" fill="#4d2d17" opacity=".28" transform="rotate(124 188 76)"/><ellipse cx="235" cy="159" rx="16.2" ry="9" fill="#4d2d17" opacity=".28" transform="rotate(155 235 159)"/><ellipse cx="26" cy="242" rx="18" ry="10" fill="#bd8350" opacity=".28" transform="rotate(6 26 242)"/><ellipse cx="73" cy="69" rx="19.8" ry="11" fill="#4d2d17" opacity=".28" transform="rotate(37 73 69)"/><ellipse cx="120" cy="152" rx="21.6" ry="12" fill="#4d2d17" opacity=".28" transform="rotate(68 120 152)"/><ellipse cx="167" cy="235" rx="7.2" ry="4" fill="#bd8350" opacity=".28" transform="rotate(99 167 235)"/><ellipse cx="214" cy="62" rx="9" ry="5" fill="#4d2d17" opacity=".28" transform="rotate(130 214 62)"/><ellipse cx="5" cy="145" rx="10.8" ry="6" fill="#4d2d17" opacity=".28" transform="rotate(161 5 145)"/><ellipse cx="52" cy="228" rx="12.6" ry="7" fill="#bd8350" opacity=".28" transform="rotate(12 52 228)"/><ellipse cx="99" cy="55" rx="14.4" ry="8" fill="#4d2d17" opacity=".28" transform="rotate(43 99 55)"/><ellipse cx="146" cy="138" rx="16.2" ry="9" fill="#4d2d17" opacity=".28" transform="rotate(74 146 138)"/><ellipse cx="193" cy="221" rx="18" ry="10" fill="#bd8350" opacity=".28" transform="rotate(105 193 221)"/><ellipse cx="240" cy="48" rx="19.8" ry="11" fill="#4d2d17" opacity=".28" transform="rotate(136 240 48)"/><ellipse cx="31" cy="131" rx="21.6" ry="12" fill="#4d2d17" opacity=".28" transform="rotate(167 31 131)"/><ellipse cx="78" cy="214" rx="7.2" ry="4" fill="#bd8350" opacity=".28" transform="rotate(18 78 214)"/><ellipse cx="125" cy="41" rx="9" ry="5" fill="#4d2d17" opacity=".28" transform="rotate(49 125 41)"/><ellipse cx="172" cy="124" rx="10.8" ry="6" fill="#4d2d17" opacity=".28" transform="rotate(80 172 124)"/><ellipse cx="219" cy="207" rx="12.6" ry="7" fill="#bd8350" opacity=".28" transform="rotate(111 219 207)"/><ellipse cx="10" cy="34" rx="14.4" ry="8" fill="#4d2d17" opacity=".28" transform="rotate(142 10 34)"/><ellipse cx="57" cy="117" rx="16.2" ry="9" fill="#4d2d17" opacity=".28" transform="rotate(173 57 117)"/><ellipse cx="104" cy="200" rx="18" ry="10" fill="#bd8350" opacity=".28" transform="rotate(24 104 200)"/><ellipse cx="151" cy="27" rx="19.8" ry="11" fill="#4d2d17" opacity=".28" transform="rotate(55 151 27)"/><ellipse cx="198" cy="110" rx="21.6" ry="12" fill="#4d2d17" opacity=".28" transform="rotate(86 198 110)"/><ellipse cx="245" cy="193" rx="7.2" ry="4" fill="#bd8350" opacity=".28" transform="rotate(117 245 193)"/><ellipse cx="36" cy="20" rx="9" ry="5" fill="#4d2d17" opacity=".28" transform="rotate(148 36 20)"/><ellipse cx="83" cy="103" rx="10.8" ry="6" fill="#4d2d17" opacity=".28" transform="rotate(179 83 103)"/><ellipse cx="130" cy="186" rx="12.6" ry="7" fill="#bd8350" opacity=".28" transform="rotate(30 130 186)"/><ellipse cx="177" cy="13" rx="14.4" ry="8" fill="#4d2d17" opacity=".28" transform="rotate(61 177 13)"/><ellipse cx="224" cy="96" rx="16.2" ry="9" fill="#4d2d17" opacity=".28" transform="rotate(92 224 96)"/><ellipse cx="15" cy="179" rx="18" ry="10" fill="#bd8350" opacity=".28" transform="rotate(123 15 179)"/><ellipse cx="62" cy="6" rx="19.8" ry="11" fill="#4d2d17" opacity=".28" transform="rotate(154 62 6)"/><ellipse cx="109" cy="89" rx="21.6" ry="12" fill="#4d2d17" opacity=".28" transform="rotate(5 109 89)"/><ellipse cx="156" cy="172" rx="7.2" ry="4" fill="#bd8350" opacity=".28" transform="rotate(36 156 172)"/><ellipse cx="203" cy="255" rx="9" ry="5" fill="#4d2d17" opacity=".28" transform="rotate(67 203 255)"/><ellipse cx="250" cy="82" rx="10.8" ry="6" fill="#4d2d17" opacity=".28" transform="rotate(98 250 82)"/><ellipse cx="41" cy="165" rx="12.6" ry="7" fill="#bd8350" opacity=".28" transform="rotate(129 41 165)"/><path d="M0 44 C54 26 98 73 150 45 C193 22 217 49 256 35 V0 H0Z" fill="#bd8350" opacity=".14"/><path d="M0 226 C55 205 91 238 142 216 C191 195 221 226 256 210 V256 H0Z" fill="#4d2d17" opacity=".2"/>
</svg>